<?xml version="1.0" encoding="UTF-8" standalone="no"?>
<!DOCTYPE svg PUBLIC "-//W3C//DTD SVG 1.1//EN"
 "http://www.w3.org/Graphics/SVG/1.1/DTD/svg11.dtd">
<!-- Generated by graphviz version 2.43.0 (0)
 -->
<!-- Title: snakemake_dag Pages: 1 -->
<svg width="300pt" height="265pt"
 viewBox="0.00 0.00 300.00 265.00" xmlns="http://www.w3.org/2000/svg" xmlns:xlink="http://www.w3.org/1999/xlink">
<g id="graph0" class="graph" transform="scale(1 1) rotate(0) translate(4 261)">
<title>snakemake_dag</title>
<polygon fill="white" stroke="transparent" points="-4,4 -4,-261 296,-261 296,4 -4,4"/>
<!-- 0 -->
<g id="node1" class="node">
<title>0</title>
<path fill="none" stroke="#afd856" stroke-width="2" d="M160.5,-36C160.5,-36 130.5,-36 130.5,-36 124.5,-36 118.5,-30 118.5,-24 118.5,-24 118.5,-12 118.5,-12 118.5,-6 124.5,0 130.5,0 130.5,0 160.5,0 160.5,0 166.5,0 172.5,-6 172.5,-12 172.5,-12 172.5,-24 172.5,-24 172.5,-30 166.5,-36 160.5,-36"/>
<text text-anchor="middle" x="145.5" y="-15.5" font-family="sans" font-size="10.00">all</text>
</g>
<!-- 1 -->
<g id="node2" class="node">
<title>1</title>
<path fill="none" stroke="#56d8a9" stroke-width="2" d="M169,-108C169,-108 122,-108 122,-108 116,-108 110,-102 110,-96 110,-96 110,-84 110,-84 110,-78 116,-72 122,-72 122,-72 169,-72 169,-72 175,-72 181,-78 181,-84 181,-84 181,-96 181,-96 181,-102 175,-108 169,-108"/>
<text text-anchor="middle" x="145.5" y="-87.5" font-family="sans" font-size="10.00">plot_data</text>
</g>
<!-- 1&#45;&gt;0 -->
<g id="edge1" class="edge">
<title>1&#45;&gt;0</title>
<path fill="none" stroke="grey" stroke-width="2" d="M145.5,-71.7C145.5,-63.98 145.5,-54.71 145.5,-46.11"/>
<polygon fill="grey" stroke="grey" stroke-width="2" points="149,-46.1 145.5,-36.1 142,-46.1 149,-46.1"/>
</g>
<!-- 2 -->
<g id="node3" class="node">
<title>2</title>
<path fill="none" stroke="#56a9d8" stroke-width="2" d="M125,-180C125,-180 60,-180 60,-180 54,-180 48,-174 48,-168 48,-168 48,-156 48,-156 48,-150 54,-144 60,-144 60,-144 125,-144 125,-144 131,-144 137,-150 137,-156 137,-156 137,-168 137,-168 137,-174 131,-180 125,-180"/>
<text text-anchor="middle" x="92.5" y="-159.5" font-family="sans" font-size="10.00">process_data</text>
</g>
<!-- 2&#45;&gt;1 -->
<g id="edge2" class="edge">
<title>2&#45;&gt;1</title>
<path fill="none" stroke="grey" stroke-width="2" d="M105.6,-143.7C111.89,-135.39 119.55,-125.28 126.46,-116.14"/>
<polygon fill="grey" stroke="grey" stroke-width="2" points="129.3,-118.19 132.55,-108.1 123.72,-113.96 129.3,-118.19"/>
</g>
<!-- 3 -->
<g id="node4" class="node">
<title>3</title>
<path fill="none" stroke="#59d856" stroke-width="2" stroke-dasharray="5,2" d="M125,-257C125,-257 12,-257 12,-257 6,-257 0,-251 0,-245 0,-245 0,-228 0,-228 0,-222 6,-216 12,-216 12,-216 125,-216 125,-216 131,-216 137,-222 137,-228 137,-228 137,-245 137,-245 137,-251 131,-257 125,-257"/>
<text text-anchor="middle" x="68.5" y="-245" font-family="sans" font-size="10.00">create_data</text>
<text text-anchor="middle" x="68.5" y="-234" font-family="sans" font-size="10.00">data_directory: data</text>
<text text-anchor="middle" x="68.5" y="-223" font-family="sans" font-size="10.00">sample: A</text>
</g>
<!-- 3&#45;&gt;2 -->
<g id="edge4" class="edge">
<title>3&#45;&gt;2</title>
<path fill="none" stroke="grey" stroke-width="2" d="M75.06,-215.69C77.69,-207.73 80.77,-198.44 83.6,-189.89"/>
<polygon fill="grey" stroke="grey" stroke-width="2" points="86.95,-190.91 86.77,-180.32 80.3,-188.71 86.95,-190.91"/>
</g>
<!-- 4 -->
<g id="node5" class="node">
<title>4</title>
<path fill="none" stroke="#56a9d8" stroke-width="2" d="M244,-180C244,-180 179,-180 179,-180 173,-180 167,-174 167,-168 167,-168 167,-156 167,-156 167,-150 173,-144 179,-144 179,-144 244,-144 244,-144 250,-144 256,-150 256,-156 256,-156 256,-168 256,-168 256,-174 250,-180 244,-180"/>
<text text-anchor="middle" x="211.5" y="-159.5" font-family="sans" font-size="10.00">process_data</text>
</g>
<!-- 4&#45;&gt;1 -->
<g id="edge3" class="edge">
<title>4&#45;&gt;1</title>
<path fill="none" stroke="grey" stroke-width="2" d="M195.19,-143.7C187.19,-135.22 177.43,-124.86 168.68,-115.58"/>
<polygon fill="grey" stroke="grey" stroke-width="2" points="171.03,-112.98 161.63,-108.1 165.94,-117.78 171.03,-112.98"/>
</g>
<!-- 5 -->
<g id="node6" class="node">
<title>5</title>
<path fill="none" stroke="#59d856" stroke-width="2" stroke-dasharray="5,2" d="M280,-257C280,-257 167,-257 167,-257 161,-257 155,-251 155,-245 155,-245 155,-228 155,-228 155,-222 161,-216 167,-216 167,-216 280,-216 280,-216 286,-216 292,-222 292,-228 292,-228 292,-245 292,-245 292,-251 286,-257 280,-257"/>
<text text-anchor="middle" x="223.5" y="-245" font-family="sans" font-size="10.00">create_data</text>
<text text-anchor="middle" x="223.5" y="-234" font-family="sans" font-size="10.00">data_directory: data</text>
<text text-anchor="middle" x="223.5" y="-223" font-family="sans" font-size="10.00">sample: B</text>
</g>
<!-- 5&#45;&gt;4 -->
<g id="edge5" class="edge">
<title>5&#45;&gt;4</title>
<path fill="none" stroke="grey" stroke-width="2" d="M220.22,-215.69C218.93,-207.91 217.43,-198.84 216.04,-190.45"/>
<polygon fill="grey" stroke="grey" stroke-width="2" points="219.45,-189.61 214.37,-180.32 212.55,-190.76 219.45,-189.61"/>
</g>
</g>
</svg>
